<svg xmlns="http://www.w3.org/2000/svg" width="434" height="110" viewBox="0 0 434 110"><g transform="translate(-103 -58)"><rect width="434" height="110" transform="translate(103 58)" fill="#fff"/><g transform="translate(70.053 24.488)"><path d="M222.8,82.594c0-2.093,1.539-3.447,3.94-3.447h11.45c10.4,0,17.422,5.725,17.422,14.1s-6.956,14.344-17.422,14.344h-1.6c-4,0-6.033,2.093-6.033,5.417v9.357c0,2.647-1.539,4.309-3.878,4.309s-3.878-1.662-3.878-4.309V82.594Zm7.757,11.881c0,4.186,2.155,6.218,6.218,6.218h.985c5.725,0,9.911-2.339,9.911-7.449s-4.186-7.449-9.911-7.449h-.985c-4.063,0-6.218,1.97-6.218,6.218v2.524Zm25.055,28.564c0,2.216,1.539,3.632,3.878,3.632s2.955-.985,3.755-3.078l1.416-3.755c1.108-3.016,3.14-4.371,5.294-4.371h12.62c2.216,0,4.186,1.416,5.294,4.371l1.416,3.755c.8,2.093,2.216,3.078,3.755,3.078a3.56,3.56,0,0,0,3.878-3.632c0-2.155-.123-1.354-.369-2.093L281.467,81.671a5.441,5.441,0,0,0-10.219,0l-15.082,39.276a6.829,6.829,0,0,0-.369,2.093Zm14.713-17.853a6.639,6.639,0,0,1,.554-2.4l2.832-7.941c.554-1.539,1.477-2.278,2.524-2.278s1.97.739,2.524,2.278l2.832,7.941a8.248,8.248,0,0,1,.554,2.4c0,1.97-1.108,3.386-4.125,3.386h-3.57C271.433,108.572,270.325,107.157,270.325,105.187Zm24.009-22.47c0-2.155,1.539-3.571,4-3.571h30.6c2.462,0,4,1.477,4,3.571s-1.539,3.571-4,3.571h-5.109c-4.063,0-6.279,2.093-6.279,6.772v29.18c0,2.709-1.539,4.371-3.94,4.371s-3.94-1.662-3.94-4.371V93.059c0-4.74-2.216-6.772-6.279-6.772h-5.109c-2.462,0-4-1.477-4-3.571Zm45.8,39.645c0,2.647,1.539,4.309,3.878,4.309s3.878-1.662,3.878-4.309V111.774c0-3.016,1.724-4.248,3.878-4.248h.554a4.52,4.52,0,0,1,3.632,2.155l10.1,14.836a4.3,4.3,0,0,0,3.632,2.216,4,4,0,0,0,3.57-3.632c0-1.97-.246-1.662-.862-2.524l-6.71-9.419a5.043,5.043,0,0,1-1.108-2.832c0-1.662,1.477-2.832,3.2-4.125,3.14-2.339,6.525-5.417,6.525-11.266s-6.4-13.728-16.929-13.728H344.012c-2.4,0-3.878,1.416-3.878,3.447v39.706Zm7.7-28.5V91.89c0-4.309,2.278-6.094,5.725-6.094h3.324c5.725,0,9.357,2.155,9.357,7.079s-3.878,7.2-9.6,7.2h-3.14c-3.447,0-5.725-1.785-5.725-6.094Zm36.259,28.379V82.594c0-2.093,1.477-3.447,3.878-3.447h25.178c2.4,0,3.878,1.416,3.878,3.447s-1.477,3.447-3.878,3.447H397.262c-3.14,0-5.417,1.847-5.417,5.417v1.477a5.041,5.041,0,0,0,5.417,5.417h12.312c2.4,0,3.878,1.416,3.878,3.447s-1.477,3.447-3.878,3.447h-11.82a5.486,5.486,0,0,0-5.848,5.848v1.847a5.486,5.486,0,0,0,5.848,5.848h15.452c2.4,0,3.878,1.416,3.878,3.447s-1.477,3.447-3.878,3.447H388.028c-2.4,0-3.878-1.416-3.878-3.447Zm37.49-19.822c0-14.344,10.773-24.255,23.393-24.255s23.393,9.911,23.393,24.255-10.773,24.255-23.393,24.255S421.578,116.76,421.578,102.416Zm8.742,0c0,10.1,5.971,16.56,14.651,16.56s14.651-6.464,14.651-16.56-5.971-16.56-14.651-16.56S430.32,92.259,430.32,102.416Zm47.34,19.946c0,2.647,1.539,4.309,3.878,4.309s3.878-1.662,3.878-4.309V101.985c0-2.462,1.477-3.632,3.016-3.632a3.123,3.123,0,0,1,2.955,1.847l12.8,21.361c1.724,2.955,3.324,5.11,6.587,5.11s5.417-2.278,5.417-5.91V82.471c0-2.647-1.539-4.309-3.878-4.309s-3.878,1.662-3.878,4.309v20.376c0,2.462-1.477,3.632-3.016,3.632a3.123,3.123,0,0,1-2.955-1.847l-12.8-21.361c-1.724-2.955-3.324-5.11-6.587-5.11s-5.417,2.278-5.417,5.91Z" transform="translate(-66.39 -11.431)"/><path d="M123.413,72.455c0-10.281-8-18.653-17.36-21.669-11.635-3.755-26.963-3.2-38.106,2.031C54.466,59.158,50.28,73.071,50.1,86.984c-.123,11.389.985,41.492,17.976,41.676,12.62.185,14.467-16.067,20.315-23.885,4.125-5.54,9.48-7.141,16.067-8.742,11.327-2.77,19.022-11.7,18.961-23.516Z"/></g></g></svg>