<svg xmlns="http://www.w3.org/2000/svg" xmlns:xlink="http://www.w3.org/1999/xlink" width="310.396" height="48.458" viewBox="0 0 310.396 48.458"><defs><linearGradient id="a" x1="0.5" x2="0.5" y2="1" gradientUnits="objectBoundingBox"><stop offset="0" stop-color="#caecee"/><stop offset="1" stop-color="#8c56d3"/></linearGradient><clipPath id="b"><rect width="63.409" height="45.781" transform="translate(1655.528 380.327)" fill="url(#a)"/></clipPath><linearGradient id="c" x1="1" y1="0.4" x2="-0.112" y2="0.391" gradientUnits="objectBoundingBox"><stop offset="0" stop-color="#ffa3b2"/><stop offset="0.268" stop-color="#ec86d6"/><stop offset="0.536" stop-color="#73f08d"/><stop offset="0.789" stop-color="#75c0e5"/><stop offset="1" stop-color="#923ec9"/></linearGradient><linearGradient id="d" x1="0.5" x2="0.5" y2="1" gradientUnits="objectBoundingBox"><stop offset="0" stop-color="#afe2ff"/><stop offset="1" stop-color="#fff"/></linearGradient></defs><g transform="translate(-3937 -533.636)"><g transform="translate(2281.472 153.309)" clip-path="url(#b)"><g transform="translate(1655.528 380.327)"><circle cx="31.705" cy="31.705" r="31.705" transform="translate(0 0)" opacity="0.61" fill="url(#c)"/><path d="M25.3,0A25.3,25.3,0,1,1,0,25.3,25.3,25.3,0,0,1,25.3,0Z" transform="translate(6.439 9.038)" fill="url(#d)"/><circle cx="18.88" cy="18.88" r="18.88" transform="translate(12.824 18.131)" fill="url(#d)"/><circle cx="12.646" cy="12.646" r="12.646" transform="translate(19.237 27.196)" fill="#fff"/></g></g><path d="M11.1,1.68a.8.8,0,0,0,.9-.9l.3-16.95,5.49-.06a.992.992,0,0,0,1.05-1.05v-2.46a.992.992,0,0,0-1.05-1.05L1.5-20.76A.992.992,0,0,0,.45-19.71v2.46A.992.992,0,0,0,1.5-16.2l5.49.03L7.26.78a.8.8,0,0,0,.9.9Zm21.24.3c6.42,0,10.74-4.74,10.74-11.52s-4.32-11.7-10.74-11.7c-6.45,0-10.8,4.92-10.8,11.7S25.89,1.98,32.34,1.98Zm.27-4.71c-3.06,0-5.67-2.37-5.67-6.51s2.52-6.54,5.67-6.54c3.03,0,5.67,2.4,5.67,6.54S35.64-2.73,32.61-2.73ZM65.58.06c.51-.36.93-.69.54-1.23l-6.78-9.78,6.54-7.11c.3-.33.3-.78-.24-1.14l-2.97-2.22c-.54-.36-.87.03-1.32.54l-7.62,9.21.12-8.22a.763.763,0,0,0-.87-.9H49.2c-.6,0-.87.3-.87.9L48.69.78a.8.8,0,0,0,.9.9h3.06a.8.8,0,0,0,.9-.9l.06-5.55L55.8-7.11l6.09,8.34c.45.51.66.81,1.26.6Zm9.51,1.62a.8.8,0,0,0,.9-.9l.3-20.67a.763.763,0,0,0-.87-.9H71.76c-.6,0-.87.3-.87.9L71.25.78a.8.8,0,0,0,.9.9Zm27.84-.03a.8.8,0,0,0,.9-.9l.36-20.34a1.167,1.167,0,0,0-1.2-1.2H99.36a1.856,1.856,0,0,0-1.47.9L93.18-6.81,88.47-19.89a1.856,1.856,0,0,0-1.47-.9H83.37a1.167,1.167,0,0,0-1.2,1.2L82.53.75a.8.8,0,0,0,.9.9h2.64a.8.8,0,0,0,.9-.9l.21-12.39L90.96.21a1.058,1.058,0,0,0,1.11.84h2.19A1.089,1.089,0,0,0,95.4.21l3.78-11.85L99.39.75a.8.8,0,0,0,.9.9Zm24-4.38c-.09-.54-.36-.72-.99-.6a54.4,54.4,0,0,1-10.41.72l-.03-4.56,9.54-.09a.992.992,0,0,0,1.05-1.05v-2.46a.992.992,0,0,0-1.05-1.05l-9.54.18v-4.47l10.74-.15a.992.992,0,0,0,1.05-1.05v-2.46a.992.992,0,0,0-1.05-1.05l-14.07.06a1.911,1.911,0,0,0-2.1,2.1l.36,18.57a1.9,1.9,0,0,0,2.1,2.07A61.7,61.7,0,0,0,126.75.81c.51-.12.75-.42.63-1.05ZM149.49.06c.51-.36.93-.69.54-1.23l-6.78-9.78,6.54-7.11c.3-.33.3-.78-.24-1.14l-2.97-2.22c-.54-.36-.87.03-1.32.54l-7.62,9.21.12-8.22a.763.763,0,0,0-.87-.9h-3.78c-.6,0-.87.3-.87.9L132.6.78a.8.8,0,0,0,.9.9h3.06a.8.8,0,0,0,.9-.9l.06-5.55,2.19-2.34,6.09,8.34c.45.51.66.81,1.26.6ZM159,1.68a.8.8,0,0,0,.9-.9l.3-20.67a.763.763,0,0,0-.87-.9h-3.66c-.6,0-.87.3-.87.9L155.16.78a.8.8,0,0,0,.9.9Z" transform="translate(4012 559)" fill="#353c40"/><path d="M8.6-4.7a.433.433,0,0,0-.434-.42c-.21,0-.448.07-.672.084-.322-1.134-.588-2.3-.994-3.4-.154-.42-.476-1.442-1.05-1.442C4.914-9.884,4.34-8.82,4.1-8.442,3.444-7.364.322-1.624.322-1.092a.441.441,0,0,0,.42.42A.42.42,0,0,0,1.148-.98C1.624-2.1,2.2-3.192,2.758-4.27c1.344.112,2.716.1,4.074.1.154.63.308,1.274.434,1.9a5.4,5.4,0,0,1,.154.952.431.431,0,0,0,.42.42.431.431,0,0,0,.42-.42,6.067,6.067,0,0,0-.14-.994c-.126-.63-.28-1.274-.434-1.9C8.022-4.228,8.6-4.228,8.6-4.7ZM6.622-5.012H6.146c-.994.014-1.988-.014-2.968-.07.406-.77.826-1.54,1.26-2.3A12.055,12.055,0,0,1,5.4-8.89,22.459,22.459,0,0,1,6.566-5.25ZM19.936-6.44c0-.546-1.26-.868-1.694-.868-1.288,0-2,1.078-2.45,2.128L15.75-5.1c0-.574-.014-1.134-.042-1.708a5.833,5.833,0,0,0-.056-.854.411.411,0,0,0-.42-.35.418.418,0,0,0-.406.42v.07a15.051,15.051,0,0,1,.07,1.6c.014.826.028,1.652.028,2.478v1.036c0,.378-.028.77-.014,1.148a.421.421,0,0,0,.406.434.421.421,0,0,0,.434-.406,11.18,11.18,0,0,1,.812-3.626c.28-.7.812-1.61,1.666-1.61.616,0,1.05.434,1.3.434A.406.406,0,0,0,19.936-6.44ZM27.37-2.366a.418.418,0,0,0-.42-.406.391.391,0,0,0-.364.21,1.185,1.185,0,0,1-.9.546,1.432,1.432,0,0,1-.07-.546c0-.714.1-1.428.168-2.128.042-.448.112-.9.112-1.344a1.956,1.956,0,0,0-2.1-2.212,4.016,4.016,0,0,0-2.534.91.433.433,0,0,0-.168.322.418.418,0,0,0,.406.42.419.419,0,0,0,.252-.084A3.239,3.239,0,0,1,23.8-7.42c.91,0,1.274.49,1.274,1.358,0,.476-.112.966-.126,1.442a1.962,1.962,0,0,0-1.5-.728,2.086,2.086,0,0,0-.994.28,3.1,3.1,0,0,0-1.6,2.716c0,1.12.966,1.54,1.946,1.54a4.084,4.084,0,0,0,2.24-.672.75.75,0,0,0,.616.294,2.045,2.045,0,0,0,1.652-.966A.519.519,0,0,0,27.37-2.366ZM24.878-3.892a10.826,10.826,0,0,0-.084,1.344v.21a3.254,3.254,0,0,1-2,.7c-.476,0-1.106-.126-1.106-.714a2.321,2.321,0,0,1,1.092-1.96,1.309,1.309,0,0,1,.672-.21c.728,0,.882.658,1.26.658A.7.7,0,0,0,24.878-3.892Zm6.09-4.69a.462.462,0,0,0-.168-.336,3.455,3.455,0,0,1-.56-.9.4.4,0,0,0-.364-.224.413.413,0,0,0-.42.42.472.472,0,0,0,.07.238c.154.308.574,1.218,1.022,1.218A.413.413,0,0,0,30.968-8.582Zm-.112,7.07a.431.431,0,0,0-.42-.42c-.21,0-.266.112-.392.238a5.719,5.719,0,0,1-.266-1.89,9.165,9.165,0,0,1,.182-1.75c0-.028.014-.056.014-.084a.431.431,0,0,0-.42-.42.407.407,0,0,0-.406.336,8.556,8.556,0,0,0-.2,1.988c0,.616.056,2.716,1.008,2.716C30.31-.8,30.856-1.12,30.856-1.512Zm8.092-.21a.424.424,0,0,0-.42-.434c-.084,0-.168.042-.252.042-.238,0-.238-1.134-.238-1.288,0-.49.028-.966.028-1.456,0-.84-.056-2.128-1.2-2.128-1.106,0-2.324,1.358-2.912,2.184.014-.644.028-1.274.056-1.918v-.042a.412.412,0,0,0-.42-.42.416.416,0,0,0-.42.392c-.042.336-.028.714-.042,1.064C33.11-5.04,33.1-4.34,33.1-3.654A18.142,18.142,0,0,0,33.18-1.33a.432.432,0,0,0,.406.364.416.416,0,0,0,.42-.434v-.056c-.042-.672-.056-1.386-.056-2.058a.446.446,0,0,0,.308-.21,7.54,7.54,0,0,1,.6-.882c.35-.462,1.358-1.54,1.988-1.54a.414.414,0,0,1,.14.028c.224.084.238,1.12.238,1.372,0,.462-.028.924-.028,1.4,0,.756.042,2.072,1.092,2.072C38.584-1.274,38.948-1.372,38.948-1.722Zm6.846-3.416A2.121,2.121,0,0,0,43.54-7.546a2.606,2.606,0,0,0-1.512.56c.028-.924.07-1.862.14-2.786.056-.6.1-1.232.21-1.834,0-.028.014-.056.014-.084a.434.434,0,0,0-.42-.434.434.434,0,0,0-.42.35,9.6,9.6,0,0,0-.182,1.568c-.14,1.638-.21,3.3-.21,4.956,0,1.022.028,2.03.112,3.038A8.977,8.977,0,0,0,41.454-.84a.419.419,0,0,0,.406.35.446.446,0,0,0,.434-.434,2.174,2.174,0,0,0-.056-.294,3.433,3.433,0,0,0,.378.028C44.422-1.19,45.794-3.514,45.794-5.138Zm-.84,0c0,1.148-1.022,3.108-2.338,3.108a1.179,1.179,0,0,1-.49-.1A24.955,24.955,0,0,1,42-5.194v-.588a2.117,2.117,0,0,1,1.54-.924C44.562-6.706,44.954-6.146,44.954-5.138Zm7.056.154A2.356,2.356,0,0,0,49.574-7.49,1.9,1.9,0,0,0,47.7-6.006a.308.308,0,0,0-.112-.014c-.686,0-.77,1.792-.77,2.282,0,1.19.7,2.73,2.072,2.73C50.764-1.008,52.01-3.318,52.01-4.984Zm-.84,0c0,1.162-.938,3.136-2.282,3.136-.854,0-1.232-1.19-1.232-1.89a6.462,6.462,0,0,1,.084-1.036.462.462,0,0,0,.406.28.431.431,0,0,0,.406-.434c0-.168-.084-.336-.084-.532a1.12,1.12,0,0,1,1.106-1.19A1.533,1.533,0,0,1,51.17-4.984ZM62.2-6.944A.4.4,0,0,0,61.8-7.35a.418.418,0,0,0-.364.21,5.5,5.5,0,0,0-.364.7c-.252.546-.49,1.12-.728,1.68a17.127,17.127,0,0,1-1.148,2.52,15.261,15.261,0,0,1-1.106-3.052c-.07-.252-.112-.532-.2-.784a.417.417,0,0,0-.392-.336.437.437,0,0,0-.42.294c-.126.322-.224.672-.336.994a23.151,23.151,0,0,1-1.218,3,18.84,18.84,0,0,1-1.386-3.724c-.084-.294-.126-.63-.224-.924a.434.434,0,0,0-.42-.336.421.421,0,0,0-.42.42,22.409,22.409,0,0,0,.994,3.346A5.982,5.982,0,0,0,55.244-1.19a.6.6,0,0,0,.308.084.5.5,0,0,0,.308-.1,5.863,5.863,0,0,0,1.022-1.89c.2-.476.378-.966.546-1.456q.189.651.42,1.3c.182.49.644,2.016,1.344,2.016a.656.656,0,0,0,.434-.2,14.382,14.382,0,0,0,1.5-3.01c.322-.77.63-1.54,1.022-2.282A.411.411,0,0,0,62.2-6.944ZM73.36-5.138a2.121,2.121,0,0,0-2.254-2.408,2.606,2.606,0,0,0-1.512.56c.028-.924.07-1.862.14-2.786.056-.6.1-1.232.21-1.834,0-.028.014-.056.014-.084a.434.434,0,0,0-.42-.434.434.434,0,0,0-.42.35,9.6,9.6,0,0,0-.182,1.568c-.14,1.638-.21,3.3-.21,4.956,0,1.022.028,2.03.112,3.038A8.977,8.977,0,0,0,69.02-.84a.419.419,0,0,0,.406.35.446.446,0,0,0,.434-.434,2.174,2.174,0,0,0-.056-.294,3.433,3.433,0,0,0,.378.028C71.988-1.19,73.36-3.514,73.36-5.138Zm-.84,0c0,1.148-1.022,3.108-2.338,3.108a1.179,1.179,0,0,1-.49-.1,24.955,24.955,0,0,1-.126-3.066v-.588a2.117,2.117,0,0,1,1.54-.924C72.128-6.706,72.52-6.146,72.52-5.138Zm7.35-1.3c0-.546-1.26-.868-1.694-.868-1.288,0-2,1.078-2.45,2.128l-.042.084c0-.574-.014-1.134-.042-1.708a5.833,5.833,0,0,0-.056-.854.411.411,0,0,0-.42-.35.418.418,0,0,0-.406.42v.07a15.051,15.051,0,0,1,.07,1.6c.014.826.028,1.652.028,2.478v1.036c0,.378-.028.77-.014,1.148a.421.421,0,0,0,.406.434.421.421,0,0,0,.434-.406A11.18,11.18,0,0,1,76.5-4.858c.28-.7.812-1.61,1.666-1.61.616,0,1.05.434,1.3.434A.406.406,0,0,0,79.87-6.44Zm3.6-2.142a.462.462,0,0,0-.168-.336,3.455,3.455,0,0,1-.56-.9.4.4,0,0,0-.364-.224.413.413,0,0,0-.42.42.472.472,0,0,0,.07.238c.154.308.574,1.218,1.022,1.218A.413.413,0,0,0,83.468-8.582Zm-.112,7.07a.431.431,0,0,0-.42-.42c-.21,0-.266.112-.392.238a5.719,5.719,0,0,1-.266-1.89,9.165,9.165,0,0,1,.182-1.75c0-.028.014-.056.014-.084a.431.431,0,0,0-.42-.42.407.407,0,0,0-.406.336,8.556,8.556,0,0,0-.2,1.988c0,.616.056,2.716,1.008,2.716C82.81-.8,83.356-1.12,83.356-1.512Zm7.07-10.15a.406.406,0,0,0-.392-.42.423.423,0,0,0-.448.392,4.24,4.24,0,0,0-.028.434l-.07,1.036c-.056,1.022-.112,2.044-.154,3.066a.983.983,0,0,0-.7-.336,2.686,2.686,0,0,0-1.3.406,4.407,4.407,0,0,0-2.128,3.7,2.514,2.514,0,0,0,2.66,2.464,2.784,2.784,0,0,0,1.54-.518c.056.308.168.756.56.756a.421.421,0,0,0,.42-.42.419.419,0,0,0-.084-.252,12.935,12.935,0,0,1-.2-2.688c0-2.534.238-5.054.322-7.588Zm-1.12,9.226a2.21,2.21,0,0,1-1.442.672,1.682,1.682,0,0,1-1.82-1.624A3.526,3.526,0,0,1,87.71-6.314a1.853,1.853,0,0,1,.924-.336c.168,0,.252.574.644.56h.028Q89.264-5,89.264-3.906,89.264-3.171,89.306-2.436Zm8.988,1.288a.428.428,0,0,0-.406-.42c-.2,0-1.106.238-1.344.294a14.969,14.969,0,0,1,.434-1.9.273.273,0,0,0,.014-.112.4.4,0,0,0-.406-.42.419.419,0,0,0-.252.084,4.045,4.045,0,0,1-2.212.952.628.628,0,0,1-.154.014c-.8,0-1.05-.56-1.05-1.344,0-1.162.938-2.87,2.2-2.87a1.241,1.241,0,0,1,1.232,1.358,2.791,2.791,0,0,1-.21,1.078.7.7,0,0,0-.028.168.386.386,0,0,0,.406.392.391.391,0,0,0,.378-.266,3.286,3.286,0,0,0,.266-1.372,2.035,2.035,0,0,0-2.044-2.17c-1.736,0-3.01,2.058-3.01,3.7,0,1.246.588,2.142,1.848,2.142a4.416,4.416,0,0,0,1.96-.532c-.1.462-.2.924-.252,1.386-1.134.42-2.506,1.176-2.506,2.562a1.639,1.639,0,0,0,1.778,1.526c1.3,0,1.414-1.246,1.414-2.226,0-.406.028-.826.07-1.246.5-.154,1.022-.238,1.54-.378A.4.4,0,0,0,98.294-1.148ZM95.564-.07c-.028.322-.028.63-.028.938,0,.392.028,1.414-.6,1.414-.476,0-.966-.224-.966-.714C93.968.756,94.92.224,95.564-.07Zm6.468-8.512a.462.462,0,0,0-.168-.336,3.455,3.455,0,0,1-.56-.9.4.4,0,0,0-.364-.224.413.413,0,0,0-.42.42.472.472,0,0,0,.07.238c.154.308.574,1.218,1.022,1.218A.413.413,0,0,0,102.032-8.582Zm-.112,7.07a.431.431,0,0,0-.42-.42c-.21,0-.266.112-.392.238a5.719,5.719,0,0,1-.266-1.89,9.165,9.165,0,0,1,.182-1.75c0-.028.014-.056.014-.084a.431.431,0,0,0-.42-.42.407.407,0,0,0-.406.336,8.556,8.556,0,0,0-.2,1.988c0,.616.056,2.716,1.008,2.716C101.374-.8,101.92-1.12,101.92-1.512Zm8.092-.21a.424.424,0,0,0-.42-.434c-.084,0-.168.042-.252.042-.238,0-.238-1.134-.238-1.288,0-.49.028-.966.028-1.456,0-.84-.056-2.128-1.2-2.128-1.106,0-2.324,1.358-2.912,2.184.014-.644.028-1.274.056-1.918v-.042a.412.412,0,0,0-.42-.42.416.416,0,0,0-.42.392c-.042.336-.028.714-.042,1.064-.014.686-.028,1.386-.028,2.072a18.142,18.142,0,0,0,.084,2.324.432.432,0,0,0,.406.364.416.416,0,0,0,.42-.434v-.056c-.042-.672-.056-1.386-.056-2.058a.446.446,0,0,0,.308-.21,7.539,7.539,0,0,1,.6-.882c.35-.462,1.358-1.54,1.988-1.54a.414.414,0,0,1,.14.028c.224.084.238,1.12.238,1.372,0,.462-.028.924-.028,1.4,0,.756.042,2.072,1.092,2.072C109.648-1.274,110.012-1.372,110.012-1.722Zm7.742.574a.428.428,0,0,0-.406-.42c-.2,0-1.106.238-1.344.294a14.969,14.969,0,0,1,.434-1.9.273.273,0,0,0,.014-.112.4.4,0,0,0-.406-.42.419.419,0,0,0-.252.084,4.045,4.045,0,0,1-2.212.952.628.628,0,0,1-.154.014c-.8,0-1.05-.56-1.05-1.344,0-1.162.938-2.87,2.2-2.87a1.241,1.241,0,0,1,1.232,1.358,2.791,2.791,0,0,1-.21,1.078.7.7,0,0,0-.028.168.386.386,0,0,0,.406.392.391.391,0,0,0,.378-.266,3.286,3.286,0,0,0,.266-1.372,2.035,2.035,0,0,0-2.044-2.17c-1.736,0-3.01,2.058-3.01,3.7,0,1.246.588,2.142,1.848,2.142a4.416,4.416,0,0,0,1.96-.532c-.1.462-.2.924-.252,1.386-1.134.42-2.506,1.176-2.506,2.562a1.639,1.639,0,0,0,1.778,1.526c1.3,0,1.414-1.246,1.414-2.226,0-.406.028-.826.07-1.246.5-.154,1.022-.238,1.54-.378A.4.4,0,0,0,117.754-1.148ZM115.024-.07C115,.252,115,.56,115,.868c0,.392.028,1.414-.6,1.414-.476,0-.966-.224-.966-.714C113.428.756,114.38.224,115.024-.07Zm16.73-6.72a.429.429,0,0,0-.392-.434c-.35-.042-.714-.056-1.064-.084-.84-.056-1.666-.1-2.506-.126.028-.77.126-1.554.154-2.324V-9.8a.41.41,0,0,0-.42-.406.413.413,0,0,0-.42.378c-.028.224-.042.448-.056.672-.042.56-.07,1.134-.1,1.708h-.168c-.686,0-2.716,0-3.248.546a.7.7,0,0,0-.224.5.428.428,0,0,0,.42.448.423.423,0,0,0,.42-.364,7.8,7.8,0,0,1,2.562-.294h.2q-.042.945-.042,1.89c0,.8,0,3.136.63,3.766a.768.768,0,0,0,.574.266c.336,0,1.022-.252,1.022-.658a.431.431,0,0,0-.42-.42c-.224,0-.35.2-.56.238-.392-.392-.406-2.688-.406-3.178q0-.945.042-1.89c1.19.042,2.366.168,3.556.21h.028A.409.409,0,0,0,131.754-6.79Zm8.078,4.62a.418.418,0,0,0-.42-.406c-.364,0-.672.714-1.288.742a1.348,1.348,0,0,1-.056-.476c0-.7.112-1.386.112-2.072,0-.728-.126-1.778-1.078-1.778-1.33,0-2.562,3.108-3,4.116-.042-.672-.056-1.344-.056-2.03a42.627,42.627,0,0,1,.49-6.93v-.07a.406.406,0,0,0-.406-.406.409.409,0,0,0-.42.336,15.746,15.746,0,0,0-.252,1.988c-.126,1.344-.21,2.7-.238,4.046-.014.392-.014.8-.014,1.19,0,.532-.014,2.856.392,3.29a.535.535,0,0,0,.392.2c.308,0,.448-.28.56-.518s.21-.49.322-.742a19.653,19.653,0,0,1,1.2-2.506c.14-.238.7-1.12,1.036-1.12.224,0,.21.784.21.924,0,.686-.1,1.372-.1,2.058,0,.574.112,1.358.854,1.358a2.24,2.24,0,0,0,1.582-.826A.5.5,0,0,0,139.832-2.17Zm7.14-.476a.41.41,0,0,0-.42-.406.393.393,0,0,0-.266.1c-.14.112-.266.224-.406.322a4.035,4.035,0,0,1-2.212.714c-1.274,0-1.9-.574-1.9-1.862v-.294c.056.35.322.378.6.378.966,0,4-.448,4-1.764a2.686,2.686,0,0,0-2.422-2.394,3.231,3.231,0,0,0-2.772,2.464,4.855,4.855,0,0,0-.266,1.61,2.466,2.466,0,0,0,2.758,2.7A4.763,4.763,0,0,0,146.426-2a3.159,3.159,0,0,0,.406-.322A.405.405,0,0,0,146.972-2.646ZM145.53-5.474v.042c-.448.574-2.436.9-3.122.9-.266,0-.532-.028-.63.294.126-1.106.854-2.772,2.17-2.772a1.591,1.591,0,0,1,1.19.7A1.931,1.931,0,0,1,145.53-5.474Zm15.652.77a.433.433,0,0,0-.434-.42c-.21,0-.448.07-.672.084-.322-1.134-.588-2.3-.994-3.4-.154-.42-.476-1.442-1.05-1.442-.532,0-1.106,1.064-1.344,1.442-.658,1.078-3.78,6.818-3.78,7.35a.441.441,0,0,0,.42.42.42.42,0,0,0,.406-.308c.476-1.12,1.05-2.212,1.61-3.29,1.344.112,2.716.1,4.074.1.154.63.308,1.274.434,1.9a5.4,5.4,0,0,1,.154.952.431.431,0,0,0,.42.42.431.431,0,0,0,.42-.42,6.067,6.067,0,0,0-.14-.994c-.126-.63-.28-1.274-.434-1.9C160.608-4.228,161.182-4.228,161.182-4.7Zm-1.974-.308h-.476c-.994.014-1.988-.014-2.968-.07.406-.77.826-1.54,1.26-2.3a12.053,12.053,0,0,1,.966-1.512,22.458,22.458,0,0,1,1.162,3.64Zm11-1.778a.429.429,0,0,0-.392-.434c-.35-.042-.714-.056-1.064-.084-.84-.056-1.666-.1-2.506-.126.028-.77.126-1.554.154-2.324V-9.8a.41.41,0,0,0-.42-.406.413.413,0,0,0-.42.378c-.028.224-.042.448-.056.672-.042.56-.07,1.134-.1,1.708h-.168c-.686,0-2.716,0-3.248.546a.7.7,0,0,0-.224.5.428.428,0,0,0,.42.448.423.423,0,0,0,.42-.364,7.8,7.8,0,0,1,2.562-.294h.2q-.042.945-.042,1.89c0,.8,0,3.136.63,3.766a.768.768,0,0,0,.574.266c.336,0,1.022-.252,1.022-.658a.431.431,0,0,0-.42-.42c-.224,0-.35.2-.56.238-.392-.392-.406-2.688-.406-3.178q0-.945.042-1.89c1.19.042,2.366.168,3.556.21h.028A.409.409,0,0,0,170.212-6.79Zm10.752,5.124c0-.476-.546-.322-.714-.476-.266-.238-.28-1.078-.28-1.414,0-.56.056-1.12.056-1.68,0-.686-.056-1.624-.966-1.624-1.12,0-2.282,2.058-2.772,2.9v-.056c0-.672.1-2.464-.658-2.8a1,1,0,0,0-.406-.084c-1.106,0-2.254,1.918-2.744,2.786,0-.994.028-1.974.056-2.968v-.028a.406.406,0,0,0-.392-.42.42.42,0,0,0-.448.378,8.207,8.207,0,0,0-.042,1.022c-.014.658-.014,1.33-.014,2,0,.588,0,1.19.028,1.778a3.623,3.623,0,0,0,.056.868.408.408,0,0,0,.406.35.4.4,0,0,0,.42-.42V-1.61a6.591,6.591,0,0,1-.042-.742l.014-.014c.238-.448.448-.91.7-1.358s1.386-2.338,1.988-2.338h.042c.266.364.168,2.408.224,3,.028.336.126.77.546.77s.6-.546.77-.84c.336-.6,1.61-2.884,2.282-2.884h.028a2.872,2.872,0,0,1,.07.784c0,.56-.042,1.12-.042,1.68,0,.91.112,2.338,1.344,2.338a.238.238,0,0,0,.1-.014A.419.419,0,0,0,180.964-1.666Zm6.9-3.318A2.356,2.356,0,0,0,185.43-7.49a1.9,1.9,0,0,0-1.876,1.484.308.308,0,0,0-.112-.014c-.686,0-.77,1.792-.77,2.282,0,1.19.7,2.73,2.072,2.73C186.62-1.008,187.866-3.318,187.866-4.984Zm-.84,0c0,1.162-.938,3.136-2.282,3.136-.854,0-1.232-1.19-1.232-1.89a6.462,6.462,0,0,1,.084-1.036.462.462,0,0,0,.406.28.431.431,0,0,0,.406-.434c0-.168-.084-.336-.084-.532a1.12,1.12,0,0,1,1.106-1.19A1.533,1.533,0,0,1,187.026-4.984ZM194-3.472c0-2.1-3.542-1.232-3.7-1.848a.388.388,0,0,1-.014-.126c0-.9,1.75-1.82,2.52-1.89.252.126.266.434.588.434a.433.433,0,0,0,.434-.42c0-.406-.616-.854-.994-.854A4.893,4.893,0,0,0,189.98-6.72a1.957,1.957,0,0,0-.518,1.274c0,2.03,3.7.672,3.7,1.974a.879.879,0,0,1-.168.448,4.375,4.375,0,0,1-2.212,1.316c-.238.07-.476.112-.714.168a.423.423,0,0,0-.35.42.421.421,0,0,0,.42.42c.014,0,.056-.014.07-.014C191.478-.91,194-1.876,194-3.472ZM201.558-5c0-1.638-1.778-2.422-3.206-2.422a3.61,3.61,0,0,0-2.2.7.447.447,0,0,0-.154.336.4.4,0,0,0,.406.406.419.419,0,0,0,.252-.084c0,1.33-.1,2.632-.1,3.948v.042c-.266.014-.63.042-.63.406,0,.392.294.448.6.448-.028.882-.056,1.75-.056,2.618,0,.308-.028,1.316.224,1.54a.394.394,0,0,0,.322.126.421.421,0,0,0,.42-.42.488.488,0,0,0-.084-.238,5.051,5.051,0,0,1-.042-.924c0-.924.042-1.862.07-2.8a5.9,5.9,0,0,0,3.094-1.568A3.115,3.115,0,0,0,201.558-5Zm-.84,0a2.308,2.308,0,0,1-.826,1.512,5.268,5.268,0,0,1-2.478,1.316c.042-1.386.084-2.772.084-4.158a.617.617,0,0,0-.028-.14,3.831,3.831,0,0,1,.9-.112C199.29-6.58,200.718-6.132,200.718-5Zm9.24,2.828a.418.418,0,0,0-.42-.406c-.364,0-.672.714-1.288.742a1.348,1.348,0,0,1-.056-.476c0-.7.112-1.386.112-2.072,0-.728-.126-1.778-1.078-1.778-1.33,0-2.562,3.108-3,4.116-.042-.672-.056-1.344-.056-2.03a42.627,42.627,0,0,1,.49-6.93v-.07a.406.406,0,0,0-.406-.406.409.409,0,0,0-.42.336,15.746,15.746,0,0,0-.252,1.988c-.126,1.344-.21,2.7-.238,4.046-.014.392-.014.8-.014,1.19,0,.532-.014,2.856.392,3.29a.535.535,0,0,0,.392.2c.308,0,.448-.28.56-.518s.21-.49.322-.742a19.653,19.653,0,0,1,1.2-2.506c.14-.238.7-1.12,1.036-1.12.224,0,.21.784.21.924,0,.686-.1,1.372-.1,2.058,0,.574.112,1.358.854,1.358a2.24,2.24,0,0,0,1.582-.826A.5.5,0,0,0,209.958-2.17Zm7.14-.476a.41.41,0,0,0-.42-.406.393.393,0,0,0-.266.1c-.14.112-.266.224-.406.322a4.035,4.035,0,0,1-2.212.714c-1.274,0-1.9-.574-1.9-1.862v-.294c.056.35.322.378.6.378.966,0,4-.448,4-1.764a2.686,2.686,0,0,0-2.422-2.394A3.231,3.231,0,0,0,211.3-5.39a4.855,4.855,0,0,0-.266,1.61,2.466,2.466,0,0,0,2.758,2.7A4.763,4.763,0,0,0,216.552-2a3.159,3.159,0,0,0,.406-.322A.405.405,0,0,0,217.1-2.646Zm-1.442-2.828v.042c-.448.574-2.436.9-3.122.9-.266,0-.532-.028-.63.294.126-1.106.854-2.772,2.17-2.772a1.591,1.591,0,0,1,1.19.7A1.931,1.931,0,0,1,215.656-5.474ZM224-6.44c0-.546-1.26-.868-1.694-.868-1.288,0-2,1.078-2.45,2.128l-.042.084c0-.574-.014-1.134-.042-1.708a5.832,5.832,0,0,0-.056-.854.411.411,0,0,0-.42-.35.418.418,0,0,0-.406.42v.07a15.051,15.051,0,0,1,.07,1.6c.014.826.028,1.652.028,2.478v1.036c0,.378-.028.77-.014,1.148a.422.422,0,0,0,.406.434.422.422,0,0,0,.434-.406,11.18,11.18,0,0,1,.812-3.626c.28-.7.812-1.61,1.666-1.61.616,0,1.05.434,1.3.434A.406.406,0,0,0,224-6.44Zm7.14,3.794a.41.41,0,0,0-.42-.406.393.393,0,0,0-.266.1c-.14.112-.266.224-.406.322a4.035,4.035,0,0,1-2.212.714c-1.274,0-1.9-.574-1.9-1.862v-.294c.056.35.322.378.6.378.966,0,4-.448,4-1.764a2.686,2.686,0,0,0-2.422-2.394,3.231,3.231,0,0,0-2.772,2.464,4.855,4.855,0,0,0-.266,1.61,2.466,2.466,0,0,0,2.758,2.7A4.763,4.763,0,0,0,230.594-2,3.159,3.159,0,0,0,231-2.324.405.405,0,0,0,231.14-2.646ZM229.7-5.474v.042c-.448.574-2.436.9-3.122.9-.266,0-.532-.028-.63.294.126-1.106.854-2.772,2.17-2.772a1.591,1.591,0,0,1,1.19.7A1.931,1.931,0,0,1,229.7-5.474Zm5.7,4.62c0-.6-.826-1.12-1.358-1.12-.266,0-.518.112-.518.42a.421.421,0,0,0,.42.42c.77,0,.5.7,1.036.7A.441.441,0,0,0,235.4-.854Z" transform="translate(4012 579)" fill="#858585"/></g></svg>