<svg xmlns="http://www.w3.org/2000/svg" xmlns:xlink="http://www.w3.org/1999/xlink" width="40.566" height="31.396" viewBox="0 0 40.566 31.396"><defs><linearGradient id="a" x1="0.5" y1="1" x2="0.5" y2="0.199" gradientUnits="objectBoundingBox"><stop offset="0"/><stop offset="0.541" stop-color="#08311a"/><stop offset="1" stop-color="#19974f"/></linearGradient><linearGradient id="b" x1="0.396" y1="1" x2="0.5" y2="0.224" gradientUnits="objectBoundingBox"><stop offset="0"/><stop offset="0.466"/><stop offset="1" stop-color="#19974f"/></linearGradient></defs><g transform="translate(-1669.733 -885.604)"><ellipse cx="13.5" cy="14.5" rx="13.5" ry="14.5" transform="translate(1677 888)" fill="#fff3d2"/><path d="M9996.3,924.976l-.27-.553,3.57-1.734c-.34-.122-.773-.275-1.219-.427a14.274,14.274,0,0,0-2.193-.673h0a.208.208,0,0,0,.039,0l-.129-.6c.1-.022.24-.022.943.192.367.111.855.271,1.449.475,1.01.346,1.994.7,2,.708l.682.248Z" transform="translate(-8312.292 -22.375)"/><path d="M9997.728,924.976l-4.883-2.371.682-.248c.01,0,1-.362,2.008-.708.594-.2,1.08-.363,1.447-.475.705-.214.84-.214.943-.192l-.127.6a.192.192,0,0,0,.037,0h0a14.212,14.212,0,0,0-2.191.673c-.445.153-.881.306-1.221.427l3.57,1.734Z" transform="translate(-8301.147 -22.375)"/><ellipse cx="11" cy="5" rx="11" ry="5" transform="translate(1679 886)" fill="#3a3a3a"/><path d="M.377,0S16.594,21.242,7.1,21.242.377,0,.377,0Z" transform="matrix(-0.966, 0.259, -0.259, -0.966, 1710.3, 906.286)" fill="url(#a)"/><path d="M9.7,0S-6.513,21.242,2.982,21.242,9.7,0,9.7,0Z" transform="matrix(-0.966, -0.259, 0.259, -0.966, 1679.471, 908.731)" fill="url(#b)"/><path d="M1742.325,992.385l-1.72,6.71h11.806l-1.371-6.71Z" transform="translate(-56.339 -86.537)" fill="#fcb8ef"/></g></svg>